<?xml version="1.0" encoding="utf-8"?>
<!-- Generator: Adobe Illustrator 16.0.0, SVG Export Plug-In . SVG Version: 6.00 Build 0)  -->
<!DOCTYPE svg PUBLIC "-//W3C//DTD SVG 1.1//EN" "http://www.w3.org/Graphics/SVG/1.1/DTD/svg11.dtd">
<svg version="1.1" id="Layer_6" xmlns="http://www.w3.org/2000/svg" xmlns:xlink="http://www.w3.org/1999/xlink" x="0px" y="0px"
	 width="141.73px" height="141.73px" viewBox="0 0 141.73 141.73" enable-background="new 0 0 141.73 141.73" xml:space="preserve">
<path fill="#FEC02C" d="M141.73,129.73c0,6.627-5.373,12-12,12H12c-6.627,0-12-5.373-12-12V12C0,5.373,5.373,0,12,0h117.73
	c6.627,0,12,5.373,12,12V129.73z"/>
<path fill="#FEF5F7" d="M133.228,122.668c0,5.832-4.729,10.561-10.56,10.561H19.064c-5.833,0-10.561-4.729-10.561-10.561V19.064
	c0-5.832,4.728-10.56,10.561-10.56h103.604c5.831,0,10.56,4.728,10.56,10.56V122.668z"/>
<path fill="#FEC02C" d="M121.777,42.217c0,15.314-4.853,27.729-10.839,27.729h-80.37c-5.986,0-10.838-12.415-10.838-27.729v-6.384
	c0-15.314,4.853-27.729,10.838-27.729h80.37c5.986,0,10.839,12.415,10.839,27.729V42.217z"/>
<path fill="#FEECED" d="M113.273,37.814c0,13.337-4.045,24.148-9.032,24.148H37.266c-4.988,0-9.032-10.812-9.032-24.148v-5.561
	c0-13.336,4.044-24.148,9.032-24.148h66.976c4.987,0,9.032,10.812,9.032,24.148V37.814z"/>
<path fill="#FEC02C" d="M122.157,121.411c0,9.013-4.822,16.319-10.769,16.319H31.183c-5.947,0-10.768-7.307-10.768-16.319V98.474
	c0-8.617,4.407-15.676,9.993-16.278c0.256-0.027,0.514-0.041,0.775-0.041h80.206c5.946,0,10.769,7.308,10.769,16.319V121.411z"/>
<path fill="#FEC02C" d="M43.25,158.25"/>
</svg>
